<svg xmlns="http://www.w3.org/2000/svg" viewBox="0 0 333.13 221"><defs><style>.cls-1{fill:#a4c9ff;}.cls-2{fill:#c7b29e;}.cls-3{fill:#d6c2ad;}.cls-4{fill:#b29c88;}.cls-5{fill:none;}</style></defs><title>logo_take-1</title><g id="Layer_1" data-name="Layer 1"><text x="0.5"/><path class="cls-1" d="M187.08,5A28.45,28.45,0,0,1,215.5,33.42V187.58A28.45,28.45,0,0,1,187.08,216H32.92A28.45,28.45,0,0,1,4.5,187.58V33.42A28.45,28.45,0,0,1,32.92,5H187.08m0-5H32.92A33.42,33.42,0,0,0-.5,33.42V187.58A33.42,33.42,0,0,0,32.92,221H187.08a33.42,33.42,0,0,0,33.42-33.42V33.42A33.42,33.42,0,0,0,187.08,0Z" transform="translate(0.5 0)"/><path class="cls-2" d="M156.69,72.66,142.05,58V41.1a5.54,5.54,0,0,0-11.08,0v5.84L120.07,36a14.58,14.58,0,0,0-20.15,0L63.31,72.66a5.54,5.54,0,0,0,7.83,7.83l36.62-36.61a3.27,3.27,0,0,1,4.48,0l36.62,36.62a5.54,5.54,0,0,0,7.83-7.83Z" transform="translate(0.5 0)"/><path class="cls-3" d="M111.92,54.39a2.72,2.72,0,0,0-3.84,0L75.87,86.59a2.72,2.72,0,0,0-.8,1.92V112a10,10,0,0,0,10,10h16V97.28h18V122H135a10,10,0,0,0,10-10V88.51a2.71,2.71,0,0,0-.79-1.92Z" transform="translate(0.5 0)"/><path class="cls-4" d="M25.3,141.61v20.7H19.9v-20.7H12.67v-4.42H32.54v4.42Z" transform="translate(0.5 0)"/><path class="cls-4" d="M47.37,151.8H41v10.51H35.6V137.19H41v10.18h6.34V137.19H52.8v25.12H47.37Z" transform="translate(0.5 0)"/><path class="cls-4" d="M63.06,162.31H57.74V137.19h9.72c4.93,0,7.7,3.13,7.7,8,0,3.52-1.62,6.3-4.43,7.09l4.93,10h-5.9L65.55,153H63.06Zm3.1-13.5c2.52,0,3.38-.9,3.38-3.09v-1.08c0-2.2-.86-3.1-3.38-3.1h-3.1v7.27Z" transform="translate(0.5 0)"/><path class="cls-4" d="M79.48,162.31V137.19h16v4.42H84.88v5.76H95.17v4.43H84.88v6.08H95.53v4.43Z" transform="translate(0.5 0)"/><path class="cls-4" d="M99.32,158.85l3.13-3.45a8.48,8.48,0,0,0,6.33,2.95c2.56,0,4-1.19,4-3.35,0-1.76-.93-2.59-3.38-3l-2.63-.44c-4.5-.75-6.41-3.52-6.41-7.2,0-4.82,3.35-7.63,9-7.63,3.85,0,6.8,1.3,8.57,3.35l-3.06,3.42a7.19,7.19,0,0,0-5.47-2.37c-2.42,0-3.64,1-3.64,3,0,1.73,1,2.49,3.45,2.92l2.63.47c4,.72,6.37,3.09,6.37,7,0,4.72-3.31,8.17-9.61,8.17C104.43,162.74,101.22,161.23,99.32,158.85Z" transform="translate(0.5 0)"/><path class="cls-4" d="M133.77,151.8h-6.34v10.51H122V137.19h5.43v10.18h6.34V137.19h5.43v25.12h-5.43Z" transform="translate(0.5 0)"/><path class="cls-4" d="M142.37,149.75c0-8.21,3.1-13,9.83-13s9.82,4.79,9.82,13-3.09,13-9.82,13S142.37,158,142.37,149.75Zm13.9,2.16v-4.36c0-4-1-6.44-4.07-6.44s-4.07,2.41-4.07,6.44v4.39c0,4,1,6.45,4.07,6.45S156.27,156,156.27,151.91Z" transform="translate(0.5 0)"/><path class="cls-4" d="M166.31,162.31V137.19h5.44v20.69h10.79v4.43Z" transform="translate(0.5 0)"/><path class="cls-4" d="M186.9,137.19H195c6.73,0,10,4.5,10,12.56s-3.24,12.56-10,12.56h-8.1Zm7.74,20.87c3.2,0,4.65-2.12,4.65-6v-4.58c0-3.88-1.45-6-4.65-6h-2.41v16.63Z" transform="translate(0.5 0)"/><path class="cls-2" d="M38.37,182c0-1.24,0-2.33,0-3.37h3.38c0,.27.09,1.51.09,2.18a4,4,0,0,1,4-2.47v3.28c-2.49-.06-4,.61-4,4V191H38.37Z" transform="translate(0.5 0)"/><path class="cls-2" d="M50.34,185.52c0,1.56.78,3.08,2.5,3.08A2,2,0,0,0,55,187.27h3.45a5.45,5.45,0,0,1-5.7,4c-4.1,0-5.87-3.06-5.87-6.32,0-3.9,2-6.68,6-6.68,4.27,0,5.72,3.08,5.72,6.19a6.77,6.77,0,0,1-.05,1Zm4.8-2.11c0-1.45-.6-2.66-2.28-2.66s-2.31,1.13-2.44,2.66Z" transform="translate(0.5 0)"/><path class="cls-2" d="M61,181.71c0-1.06,0-2.22,0-3.13h3.33a14.85,14.85,0,0,1,.13,1.58,3.79,3.79,0,0,1,3.6-1.87c2.5,0,4.12,1.68,4.12,4.81V191H68.74v-7.52c0-1.4-.47-2.41-2-2.41s-2.3.81-2.3,3V191H61Z" transform="translate(0.5 0)"/><path class="cls-2" d="M86.79,184.76c0,3.76-2.25,6.53-6.19,6.53s-6.1-2.75-6.1-6.46,2.32-6.54,6.27-6.54C84.42,178.29,86.79,180.87,86.79,184.76Zm-8.8,0c0,2.39,1,3.81,2.69,3.81s2.62-1.42,2.62-3.79c0-2.6-1-3.83-2.67-3.83S78,182.16,78,184.79Z" transform="translate(0.5 0)"/><path class="cls-2" d="M91.31,178.58c1.19,4.2,2.17,7.88,2.42,9.38h0c.35-2.05,1.57-5.8,2.65-9.38h3.43L95.44,191H91.82l-4.21-12.42Z" transform="translate(0.5 0)"/><path class="cls-2" d="M111.45,187.79a28.37,28.37,0,0,0,.17,3.21h-3.29a5.69,5.69,0,0,1-.17-1.21c-.45.69-1.29,1.5-3.49,1.5-3,0-4.26-2-4.26-3.9,0-2.83,2.27-4.13,5.91-4.13h1.78v-.76c0-.89-.32-1.75-1.92-1.75s-1.77.61-1.92,1.51H101c.18-2.21,1.55-4,5.32-4,3.33,0,5.14,1.32,5.14,4.28Zm-3.35-2.45h-1.4c-2.07,0-2.84.64-2.84,1.83a1.6,1.6,0,0,0,1.79,1.66c2.18,0,2.45-1.52,2.45-3.16Z" transform="translate(0.5 0)"/><path class="cls-2" d="M116.61,178.58c1.18,4.2,2.17,7.88,2.41,9.38h0c.35-2.05,1.56-5.8,2.65-9.38h3.42L120.73,191h-3.61l-4.21-12.42Z" transform="translate(0.5 0)"/><path class="cls-2" d="M126.17,178.58h1.92v-3.37h3.44v3.37H134v2.58h-2.43v6.13c0,1,.29,1.31,1.31,1.31a5.71,5.71,0,0,0,.79,0v2.37a7.93,7.93,0,0,1-2.32.24c-2.42,0-3.22-1.3-3.22-3.47v-6.54h-1.92Z" transform="translate(0.5 0)"/><path class="cls-2" d="M135.88,173.48h3.44v3.07h-3.44Zm0,5.1h3.44V191h-3.44Z" transform="translate(0.5 0)"/><path class="cls-2" d="M154,184.76c0,3.76-2.25,6.53-6.18,6.53s-6.1-2.75-6.1-6.46,2.32-6.54,6.26-6.54C151.6,178.29,154,180.87,154,184.76Zm-8.79,0c0,2.39,1,3.81,2.68,3.81s2.62-1.42,2.62-3.79c0-2.6-.95-3.83-2.66-3.83S145.17,182.16,145.17,184.79Z" transform="translate(0.5 0)"/><path class="cls-2" d="M156.35,181.71c0-1.06,0-2.22,0-3.13h3.33a14.74,14.74,0,0,1,.14,1.58,3.78,3.78,0,0,1,3.6-1.87c2.49,0,4.12,1.68,4.12,4.81V191h-3.44v-7.52c0-1.4-.47-2.41-2-2.41s-2.29.81-2.29,3V191h-3.44Z" transform="translate(0.5 0)"/><path class="cls-2" d="M172.88,187.26a2.15,2.15,0,0,0,2.35,1.55c1.27,0,1.73-.46,1.73-1.21s-.53-1.11-2.31-1.55c-4.05-1-4.71-2.25-4.71-4s1.29-3.76,5-3.76,5,2.06,5.15,3.74h-3.27c-.11-.46-.42-1.33-2-1.33-1.13,0-1.5.51-1.5,1.06s.38.92,2.4,1.39c4.15,1,4.73,2.39,4.73,4.21,0,2.06-1.56,3.93-5.35,3.93s-5.33-1.82-5.6-4Z" transform="translate(0.5 0)"/><path class="cls-5" d="M112.15,54.74a2.71,2.71,0,0,0-3.85,0L76.09,86.94a2.69,2.69,0,0,0-.79,1.92v23.49a10,10,0,0,0,10,10h16V97.63h18v24.7h15.95a10,10,0,0,0,10-10V88.86a2.7,2.7,0,0,0-.8-1.92Z" transform="translate(0.5 0)"/></g></svg>